<svg width="420" height="274" viewBox="0 0 420 274" fill="none" xmlns="http://www.w3.org/2000/svg">
<path d="M409.6 74.9C408.1 74.9 406.9 76.1 406.9 77.6C407 101.9 396.8 107.4 387.9 112.3C382 115.5 371.1 116.9 358.5 118.6C352.3 119.4 345.8 120.3 339.3 121.4C337.4 107.7 336.9 97.3 344.1 78.6C344.6 77.2 343.9 75.7 342.6 75.1C341.2 74.6 339.7 75.2 339.1 76.6C331.3 96.6 332.1 108.1 334 122.3C315.7 126 298.2 132.5 289.6 147.3C280.8 162.4 280.3 177.2 279.8 192.8C279.5 201.4 279.3 210.1 277.5 219.2C269.9 215.1 263 209.2 257.8 201.9C240.1 177.4 239.2 159.8 239.2 130.7C239.2 100.8 228.4 81.5 208 75C206.6 74.5 205.1 75.3 204.6 76.7C204.1 78.1 204.9 79.6 206.3 80.1C224.8 86 234 103 234 130.7C234 160.8 234.9 179.1 253.6 205C259.6 213.3 267.6 220 276.5 224.5C275.6 228.1 274.4 231.7 272.9 235.4C262.5 260.6 250.9 268.7 225.1 268.7C193.6 268.7 176.7 239.7 173 220.2C172.1 215.3 171.3 208.7 170.6 201.7C169.3 190.3 167.9 177.4 165.2 169C159.8 151.8 145.3 147.1 131.2 142.6C129.4 142 127.6 141.4 125.8 140.8C129.9 132.7 135.7 125.1 141.7 117.4C143.8 114.7 145.9 112 148 109.2C156.6 97.6 160.9 86.7 160.8 77C160.8 75.5 159.3 74.1 158.1 74.4C156.6 74.4 155.4 75.6 155.5 77.1C155.6 85.7 151.7 95.4 143.8 106.1C141.8 108.8 139.7 111.5 137.6 114.2C131.4 122.1 125.3 130.2 120.9 139.1C116.9 137.6 113.1 135.8 109.5 133.5L108.4 132.8C102 128.9 82.4 116.9 87.4 78C87.6 76.5 86.5 75.2 85.1 75C83.7 74.8 82.3 75.9 82.1 77.3C78.5 105.4 86.4 125.7 105.7 137.4L106.7 138C110.6 140.5 114.7 142.4 118.8 144C116.5 149.8 115.1 156 115.1 162.8C115.1 165.9 115.3 169 115.5 172.2C115.9 177.4 116.2 182.2 115.6 187.1C113.7 204.2 101.5 222.8 81.9 225.3C63.6 227.7 42.6 219.9 32.1 206.9C17.8 189.1 12 170.1 13.8 147C14.1 143.6 14.4 140.3 14.7 137C16.6 117.1 18.4 98.4 9.29998 77C8.69998 75.6 7.09998 75 5.79998 75.6C4.39998 76.2 3.79998 77.8 4.39998 79.1C12.9 99.3 11.3 116.5 9.39998 136.5C9.09998 139.8 8.79999 143.2 8.49999 146.6C6.49999 171.2 12.7 191.4 27.9 210.3C38.1 223 57.1 231.1 75.3 231.1C77.8 231.1 80.2 231 82.6 230.6C105 227.7 118.9 206.8 121 187.6C121.6 182.2 121.2 176.9 120.9 171.7C120.7 168.7 120.5 165.7 120.5 162.7C120.5 156.6 121.8 151 123.9 145.7C125.9 146.4 127.9 147 129.8 147.7C143.7 152.2 155.7 156.1 160.3 170.6C162.8 178.5 164.2 191.1 165.5 202.2C166.3 209.3 167 216 168 221.1C172 242.3 190.6 273.9 225.4 273.9C256.9 273.9 268.6 260.5 278.2 237.3C279.7 233.7 280.8 230.2 281.8 226.7C288.3 229.4 295.2 230.8 302 231C302.3 231 302.7 231 303 231C316.6 231 328.3 225.6 336 215.8C347.9 200.5 348.7 179.9 347.1 165.3C346.1 155.7 344.9 149.9 343.6 143.8C342.6 138.9 341.5 133.9 340.5 126.5V126.4C347 125.3 353.5 124.4 359.7 123.6C372.9 121.9 384.2 120.4 391 116.7C400.2 111.7 412.9 104.8 412.8 77.3C412.3 76.1 411.1 74.9 409.6 74.9ZM338 145.1C339.3 151.1 340.5 156.7 341.4 166.1C342.8 179.7 342.2 198.9 331.4 212.8C324.6 221.5 314.2 226.2 301.7 225.9C295.2 225.8 288.8 224.3 282.6 221.7C284.6 211.8 285 202.3 285.3 193.1C285.8 178.2 286.2 164.1 294.3 150.1C301.8 137.2 317.8 131.2 334.8 127.7C335.9 135.1 336.9 140.2 338 145.1Z" fill="#1E817F"/>
<path d="M84.5 53.5C87.2 53.5 89.4 51.3 89.4 48.6V6.50001C89.4 3.80001 87.2 1.60001 84.5 1.60001C81.8 1.60001 79.6 3.80001 79.6 6.50001V48.6C79.5 51.3 81.7 53.5 84.5 53.5Z" fill="#1E817F"/>
<path d="M144.8 20.5C139.8 24.3 134 28.6 129.9 32.4C124 37.8 124 42.3 125 45.2C126.4 49.2 130.6 51.9 136.1 52.3C140.7 52.6 145 52.7 149.3 52.7C153.5 52.7 157.7 52.6 162.3 52.5C165 52.4 167.2 50.1 167.1 47.4C167 44.7 164.8 42.6 162.2 42.6H162.1C153.1 42.9 145.5 43 136.9 42.4C135.9 42.3 135.1 42.1 134.7 41.9C135 41.5 135.5 40.7 136.7 39.6C140.4 36.2 146.2 31.8 150.8 28.3C155.6 24.7 158.3 22.6 159.8 21.1C163.3 17.5 164.6 12.8 163.1 8.79999C161.7 5.19999 158.4 2.79999 153.8 2.49999C149.5 2.09999 142.7 2.39999 136.6 2.59999C134.4 2.69999 132.3 2.69999 130.8 2.79999C128.1 2.79999 125.9 5.09999 125.9 7.79999C125.9 10.5 128.1 12.7 130.8 12.7C130.8 12.7 130.8 12.7 130.9 12.7C132.5 12.7 134.6 12.6 136.9 12.5C142.4 12.3 149.2 12.1 153 12.4C153.4 12.4 153.7 12.5 153.8 12.5C153.7 12.8 153.5 13.5 152.7 14.4C151.7 15.3 148.2 17.9 144.8 20.5Z" fill="#1E817F"/>
<path d="M224 52.6C225.3 52.6 226.6 52.5 227.9 52.2C232.9 51.2 237.4 48.4 241.1 44.1C250.3 33.2 249.7 18.1 239.7 8.00001C237.8 6.10001 230.6 -0.0999953 219.8 3.3C219.1 3.5 202.4 9.30001 202.5 31.2C202.5 37.3 204.7 42.7 208.7 46.6C212.5 50.4 218.3 52.6 224 52.6ZM212.3 31.1C212.2 16.6 222.4 12.8 222.7 12.7C223.9 12.3 224.9 12.2 225.9 12.2C229.4 12.2 231.7 14.1 232.7 15C239.1 21.5 239.5 30.8 233.6 37.8C232.1 39.6 229.5 41.9 226 42.6C222 43.4 217.7 41.7 215.5 39.6C213.4 37.5 212.3 34.7 212.3 31.1C212.3 31.2 212.3 31.2 212.3 31.1Z" fill="#1E817F"/>
<path d="M283.1 52.5C283.3 52.5 283.5 52.5 283.7 52.5C286.2 52.5 288.3 50.6 288.6 48.1L288.7 47.1C289.6 39.3 292.2 16 296.4 12.5C297 13.1 298.2 14.8 299.9 19.4L300.4 20.8C301.8 24.9 304.4 32.4 311.1 31.8C317.7 31.2 319.6 24.1 320.9 19.5C321.3 17.9 321.8 16.3 322.2 15.3C322.4 14.8 323.1 13.4 323.6 12.6C326.2 15 330.5 26.9 332.5 48C332.7 50.7 335.1 52.6 337.9 52.4C340.6 52.1 342.6 49.7 342.3 47C339.5 17.4 333.1 2.29999 323.3 2.29999C322.1 2.29999 321 2.59999 319.9 3.09999C316.2 4.79999 314.4 8.59999 313.3 10.9C312.4 12.7 311.9 14.8 311.3 16.8C311.1 17.7 310.8 18.8 310.4 19.9C310.1 19.1 309.8 18.2 309.6 17.7L309 16C307.5 11.9 304 2.49999 296.4 2.49999C284.6 2.49999 281.5 21.4 278.8 46L278.7 47C278.5 49.8 280.4 52.2 283.1 52.5Z" fill="#1E817F"/>
<path d="M5.49999 53.2C8.19999 53.2 10.4 50.9 10.4 48.2L9.99999 18C9.99999 15.3 10 12.7 11.1 11.4C12.1 10.2 14.5 9.6 16.7 10.2C20.8 11.2 23.9 15.6 23.3 19.5C22.9 22.4 20.6 24.4 18.7 25.5C13.6 28.7 14.3 32.7 15.4 35.8C20 48.2 32.8 53.2 38.1 54.7C38.6 54.8 39 54.9 39.5 54.9C41.6 54.9 43.6 53.5 44.2 51.4C45 48.8 43.5 46.1 40.9 45.3C38 44.4 28.4 41.1 25 33.2C29.5 30.1 32.3 25.8 33 21C34.4 12 28 2.9 18.9 0.699998C12.9 -0.700002 6.69998 1.2 3.39998 5.4C0.0999844 9.6 0.100003 14.8 0.200003 18.3L0.599997 48.5C0.499997 51 2.69999 53.2 5.49999 53.2Z" fill="#1E817F"/>
<path d="M413.7 19C410 8.5 403.9 2.6 396.6 2.5C388.6 2.6 382.2 8.9 378.8 20.1C376.1 28.9 374.7 38.5 374.8 47.6C374.8 50.3 377 52.5 379.7 52.5C382.4 52.5 384.6 50.3 384.6 47.5C384.5 39.3 385.8 30.9 388.2 22.9C389.8 17.5 393.2 12.4 396.4 12.2C399.7 12.3 402.7 17.4 404.4 22.2C404.6 22.7 404.7 23.1 404.8 23.5H396.9C394.2 23.5 392 25.7 392 28.4C392 31.1 394.2 33.3 396.9 33.3H407.7C408.7 37.7 409.3 42.2 409.3 47.5C409.3 50.2 411.5 52.4 414.2 52.4C416.9 52.4 419.1 50.2 419.1 47.4C419.1 36.4 417 28.3 413.7 19Z" fill="#1E817F"/>
<path d="M325.9 240.5C322.4 241.6 315.8 246 315.9 255.5C315.9 258.8 317.2 261.7 319.5 263.9C321.7 265.9 325.1 267.1 328.3 267.1C329 267.1 329.8 267 330.5 266.9C333.3 266.4 335.9 264.9 338.1 262.6C340.7 259.8 342.1 256.2 342 252.7C341.9 249.1 340.2 245.7 337.3 243C336.1 242 332.1 238.8 325.9 240.5ZM334.1 258.9C333.2 259.9 331.6 261.2 329.5 261.5C327 261.9 324.4 261 323.1 259.8C321.9 258.7 321.3 257.2 321.2 255.4C321.1 247.8 326.8 245.8 327.4 245.6C330.7 244.7 332.8 246.2 333.6 246.9C335.4 248.6 336.5 250.6 336.5 252.8C336.7 255 335.8 257.1 334.1 258.9Z" fill="#1E817F"/>
<path d="M358.8 220.1C357.3 219.9 352.1 219.7 348.2 224.7C346 227.6 343.2 235.1 348.8 242.7C350.8 245.4 353.5 247 356.6 247.3C357 247.3 357.3 247.4 357.7 247.4C361.1 247.4 364.8 245.8 367.2 243.3C369.7 240.7 370.6 237.6 370.9 235.4C371.4 231.6 370.4 227.9 368.2 225.1C366.1 222.4 362.7 220.6 358.8 220.1ZM363.4 239.7C361.6 241.5 358.9 242.3 357.2 242.1C355.6 241.9 354.2 241.1 353.1 239.6C348.6 233.5 352 228.5 352.4 228.1C354.5 225.4 357.2 225.4 358.2 225.5C360.7 225.8 362.7 226.9 364 228.6C365.3 230.3 365.9 232.5 365.6 234.9C365.5 236.2 364.9 238.1 363.4 239.7Z" fill="#1E817F"/>
<path d="M302.7 264.7C302 265.5 300 266.2 297.9 266.1C296.6 266 294.7 265.6 293.4 263.9C292.2 262.5 291.8 260.3 292 257.4C292.2 254.6 292.8 252.7 293.9 251.5C294.9 250.4 298.7 248.8 301.2 250.9C302.3 251.9 304 251.7 305 250.6C306 249.5 305.8 247.8 304.7 246.8C299.9 242.7 292.8 244.7 289.9 248C287.4 250.8 286.9 254.3 286.7 257.1C286.4 261.4 287.3 264.8 289.3 267.3C291.3 269.8 294.3 271.3 297.8 271.5C298 271.5 298.2 271.5 298.4 271.5C301.6 271.5 304.8 270.3 306.7 268.4C307.7 267.3 307.7 265.6 306.6 264.6C305.5 263.6 303.8 263.6 302.7 264.7Z" fill="#1E817F"/>
<path d="M383.4 213.7C379.6 212.6 373.5 209.7 369.2 207.3C368.1 206.7 367.1 206.1 366.4 205.2C366 204.7 365.7 203.8 365.9 203.2C366.3 202 368.3 199.4 370.8 199.1C373.2 198.8 374.2 199.6 375.1 201.3C375.5 202 375.7 203.8 375.3 206.3C375.1 207.8 376.1 209.1 377.6 209.3C379.1 209.5 380.4 208.5 380.6 207C380.9 204.5 381.1 201.1 379.7 198.7C377.6 194.8 374.5 193.2 370 193.7C365 194.3 361.6 198.7 360.7 201.3C359.9 203.6 360.4 206.3 362 208.4C363.3 210.1 365 211.1 366.5 211.9C370.7 214.2 377.3 217.4 381.8 218.8C382 218.9 382.3 218.9 382.6 218.9C383.8 218.9 384.8 218.1 385.2 217C385.6 215.7 384.8 214.2 383.4 213.7Z" fill="#1E817F"/>
</svg>
