<svg width="103" height="103" viewBox="0 0 103 103" fill="none" xmlns="http://www.w3.org/2000/svg">
<circle cx="51.5" cy="51.5" r="48.5" fill="white" stroke="#1E817F" stroke-width="6"/>
<path d="M39.3274 75.9555C42.0274 75.9555 44.2274 73.6555 44.2274 70.9555L43.8274 40.7555C43.8274 38.0555 43.8275 35.4555 44.9275 34.1555C45.9275 32.9555 48.3275 32.3555 50.5275 32.9555C54.6275 33.9555 57.7274 38.3555 57.1274 42.2555C56.7274 45.1555 54.4275 47.1555 52.5275 48.2555C47.4275 51.4555 48.1274 55.4555 49.2274 58.5555C53.8274 70.9555 66.6274 75.9555 71.9274 77.4555C72.4274 77.5555 72.8274 77.6555 73.3274 77.6555C75.4274 77.6555 77.4275 76.2555 78.0275 74.1555C78.8275 71.5555 77.3274 68.8555 74.7274 68.0555C71.8274 67.1555 62.2274 63.8555 58.8274 55.9555C63.3274 52.8555 66.1274 48.5555 66.8274 43.7555C68.2274 34.7555 61.8274 25.6555 52.7274 23.4555C46.7274 22.0555 40.5274 23.9555 37.2274 28.1555C33.9274 32.3555 33.9275 37.5555 34.0275 41.0555L34.4275 71.2555C34.3275 73.7555 36.5274 75.9555 39.3274 75.9555Z" fill="#1E817F"/>
</svg>
